<svg width="177" height="158" viewBox="0 0 177 158" fill="none" xmlns="http://www.w3.org/2000/svg">
<g clip-path="url(#clip0_44_228)">
<path d="M25.7301 126.884L20.3491 123.443C20.1019 120.422 20.0247 117.389 20.1178 114.359L22.9091 115.075L20.154 113.313C20.3061 109.567 20.6431 107.096 20.6431 107.096C20.6431 107.096 31.5229 114.191 38.4617 123.807L37.2785 131.94L40.1003 126.253C40.8221 127.413 41.4705 128.617 42.0416 129.859C47.7586 142.397 48.3141 154.436 43.2824 156.748C38.2507 159.06 29.5371 150.77 23.8202 138.232C22.0478 134.345 21.0695 129.876 20.5626 125.559L25.7301 126.884Z" fill="#F0F0F0"/>
<path d="M14.6766 138.987L8.2982 138.833C6.53099 136.375 4.90328 133.819 3.42284 131.177L6.18097 130.341L2.91526 130.262C1.11696 126.977 0.133301 124.687 0.133301 124.687C0.133301 124.687 13.0998 125.115 23.9911 129.746L27.1658 137.322L26.6529 130.989C27.868 131.607 29.0432 132.302 30.1715 133.069C41.5213 140.835 48.1954 150.853 45.0786 155.443C41.9618 160.034 30.2342 157.459 18.8844 149.692C15.3659 147.284 12.2273 143.966 9.57053 140.534L14.6766 138.987Z" fill="#F0F0F0"/>
<path d="M105.583 44.3511L100.585 43.7607L98.8205 59.1096L94.3164 80.3052C93.6901 80.6113 93.1791 81.1123 92.8593 81.7336C92.5396 82.3549 92.4282 83.0632 92.5418 83.7531C92.6555 84.4431 92.988 85.0777 93.4899 85.5626C93.9918 86.0475 94.6363 86.3567 95.3274 86.4442C96.0185 86.5317 96.7193 86.3928 97.3254 86.0482C97.9315 85.7036 98.4105 85.1716 98.6912 84.5316C98.9719 83.8916 99.0392 83.1777 98.8831 82.4962C98.727 81.8147 98.3558 81.202 97.8248 80.7494L102.349 68.2599L105.583 44.3511Z" fill="#FFB6B6"/>
<path d="M112.844 153.774H108.726L106.767 137.828L112.845 137.828L112.844 153.774Z" fill="#FFB6B6"/>
<path d="M113.894 157.782L100.616 157.781V157.613C100.616 156.237 101.16 154.917 102.13 153.944C103.099 152.971 104.413 152.424 105.784 152.424H105.784L113.895 152.425L113.894 157.782Z" fill="#2F2E41"/>
<path d="M144.448 151.52L140.405 152.303L135.469 137.02L141.436 135.863L144.448 151.52Z" fill="#FFB6B6"/>
<path d="M146.237 155.254L133.199 157.782L133.167 157.616C132.907 156.265 133.193 154.866 133.96 153.726C134.728 152.586 135.916 151.799 137.261 151.538L137.262 151.538L145.225 149.994L146.237 155.254Z" fill="#2F2E41"/>
<path d="M106.387 19.1975L108.78 23.8062L126.7 19.8381L124.737 10.9025C123.183 3.82975 116.954 -1.27821 109.909 0.281749C102.864 1.8417 99.5762 8.75468 101.13 15.8275L104.018 24.8605L106.94 24.2135L106.387 19.1975Z" fill="#2F2E41"/>
<path d="M99.9969 70.0308C99.9969 70.0308 98.2328 78.8859 100.585 91.8734C102.937 104.861 103.525 110.469 103.525 110.469C103.525 110.469 101.761 112.535 102.937 113.716C104.113 114.897 102.937 117.258 102.937 117.258L105.583 145.89L114.698 144.414L113.522 117.553C113.522 117.553 114.698 115.192 114.11 114.602C113.522 114.011 114.698 110.469 114.698 110.469L116.168 82.4279L125.283 113.126C125.283 113.126 124.401 114.306 125.283 115.192C126.165 116.077 127.929 120.505 127.929 120.505L133.809 141.167L143.218 139.396L137.925 115.782C137.925 115.782 138.513 114.306 137.631 113.421C137.374 113.15 137.186 112.82 137.084 112.46C136.981 112.101 136.968 111.721 137.043 111.355C137.043 111.355 137.925 110.469 136.749 109.288C135.573 108.108 134.985 103.385 134.985 103.385C134.985 103.385 134.103 71.8018 131.163 70.0308C128.223 68.2598 99.9969 70.0308 99.9969 70.0308Z" fill="#2F2E41"/>
<path d="M113.291 21.1917C117.838 21.1917 121.524 17.4914 121.524 12.9269C121.524 8.36237 117.838 4.66211 113.291 4.66211C108.744 4.66211 105.059 8.36237 105.059 12.9269C105.059 17.4914 108.744 21.1917 113.291 21.1917Z" fill="#FFB6B6"/>
<path d="M124.893 23.5062C124.893 23.5062 130.869 22.8035 132.633 24.5745L130.869 60.2902C130.869 60.2902 132.045 61.1757 131.457 63.2419C131.116 64.598 131.116 66.0181 131.457 67.3743C131.457 67.3743 133.221 69.4405 132.339 70.326C131.457 71.2115 99.7029 70.6211 99.7029 70.6211C99.7029 70.6211 98.5268 68.5549 100.291 67.3743C102.055 66.1936 101.173 62.9467 101.173 62.9467C101.173 62.9467 100.585 62.0612 102.055 60.5853C103.525 59.1095 104.701 47.0075 104.701 47.0075L100.879 32.249C100.879 32.249 104.727 27.8891 109.124 27.5601L124.893 23.5062Z" fill="#E6E6E6"/>
<path d="M105.434 32.4521L100.879 32.249C100.879 32.249 98.2326 37.5621 97.9386 42.2848L96.3193 59.903L106.759 61.4709L105.434 32.4521Z" fill="#E6E6E6"/>
<path d="M106.238 13.3366L103.18 9.3867C103 8.55507 103.154 7.68559 103.611 6.96827C104.067 6.25095 104.788 5.74413 105.615 5.55857L117.168 3.00047C117.996 2.81943 118.862 2.97494 119.577 3.43302C120.291 3.8911 120.796 4.6145 120.981 5.44514L120.987 5.47368L120.16 10.2434L120.015 10.2173C112.845 8.934 110.803 9.3854 106.355 13.2356L106.238 13.3366Z" fill="#2F2E41"/>
<path d="M137.006 76.4476L136.455 53.2058L135.867 36.6763L128.811 37.5618L132.6 77.0691C132.197 77.5772 131.955 78.195 131.905 78.8427C131.855 79.4904 132 80.1381 132.321 80.7022C132.642 81.2663 133.124 81.7209 133.705 82.007C134.286 82.2932 134.939 82.3978 135.58 82.3075C136.221 82.2171 136.82 81.9358 137.299 81.5C137.779 81.0643 138.118 80.494 138.272 79.863C138.425 79.2319 138.387 78.5691 138.161 77.9603C137.936 77.3514 137.533 76.8245 137.006 76.4476Z" fill="#FFB6B6"/>
<path d="M127.485 25.0725L132.633 24.5742C132.633 24.5742 133.515 24.5742 134.397 27.5259C135.279 30.4776 140.128 61.6737 140.128 61.6737L129.399 62.6512L127.485 25.0725Z" fill="#E6E6E6"/>
<path d="M95.5042 61.9515H94.8162V43.0309C94.8162 41.5928 94.5341 40.1688 93.9859 38.8402C93.4377 37.5116 92.6342 36.3044 91.6213 35.2875C90.6084 34.2706 89.4059 33.464 88.0825 32.9137C86.7591 32.3633 85.3406 32.0801 83.9082 32.0801H43.9784C42.5459 32.0801 41.1275 32.3633 39.8041 32.9136C38.4806 33.464 37.2781 34.2706 36.2652 35.2875C35.2523 36.3043 34.4488 37.5115 33.9007 38.8401C33.3525 40.1687 33.0703 41.5927 33.0703 43.0308V146.831C33.0703 149.735 34.2196 152.521 36.2652 154.574C38.3109 156.628 41.0854 157.782 43.9784 157.782H83.9081C86.8011 157.782 89.5756 156.628 91.6213 154.574C93.667 152.521 94.8162 149.735 94.8162 146.831V75.4196H95.5042V61.9515Z" fill="#3F3D56"/>
<path d="M84.3481 34.9292H79.136C79.3757 35.5192 79.4672 36.1592 79.4024 36.793C79.3377 37.4269 79.1186 38.035 78.7646 38.5638C78.4106 39.0926 77.9325 39.5259 77.3724 39.8255C76.8123 40.1251 76.1874 40.2818 75.5528 40.2819H52.6775C52.0429 40.2818 51.418 40.1251 50.8579 39.8255C50.2978 39.5259 49.8196 39.0926 49.4656 38.5638C49.1116 38.035 48.8926 37.4269 48.8278 36.793C48.7631 36.1592 48.8546 35.5191 49.0943 34.9292H44.2261C42.0657 34.9292 39.9937 35.7908 38.466 37.3245C36.9383 38.8581 36.0801 40.9382 36.0801 43.1071V146.755C36.0801 147.829 36.2908 148.892 36.7002 149.885C37.1095 150.877 37.7096 151.778 38.466 152.538C39.2224 153.297 40.1204 153.899 41.1088 154.31C42.0971 154.721 43.1564 154.933 44.2261 154.933H84.3481C85.4179 154.933 86.4772 154.721 87.4655 154.31C88.4538 153.899 89.3518 153.297 90.1083 152.538C90.8647 151.778 91.4647 150.877 91.8741 149.885C92.2835 148.892 92.4942 147.829 92.4942 146.755V43.1071C92.4942 42.0332 92.2835 40.9698 91.8741 39.9776C91.4647 38.9854 90.8647 38.0838 90.1083 37.3245C89.3518 36.5651 88.4538 35.9627 87.4655 35.5517C86.4772 35.1407 85.4179 34.9292 84.3481 34.9292Z" fill="white"/>
<path d="M57.8467 72.5972L58.9562 76.4553L73.1336 76.2042L73.0094 69.1352C72.9111 63.5397 68.972 58.7138 63.3985 58.8125C57.825 58.9112 54.2811 63.6416 54.3794 69.237L55.1891 76.522L57.5007 76.4811L57.8467 72.5972Z" fill="#2F2E41"/>
<path d="M64.032 75.2949C67.5451 75.2949 70.393 72.4358 70.393 68.9089C70.393 65.382 67.5451 62.5229 64.032 62.5229C60.5188 62.5229 57.6709 65.382 57.6709 68.9089C57.6709 72.4358 60.5188 75.2949 64.032 75.2949Z" fill="#FFB6B6"/>
<path d="M76.6934 78.8675L76.5493 81.5536C73.4964 84.7415 69.3319 86.6181 64.9302 86.7892C60.5285 86.9604 56.2319 85.4129 52.9425 82.4716C52.7955 82.3417 52.6514 82.2059 52.5103 82.0672C53.3923 81.1876 55.8269 79.0151 58.5289 78.8144L70.7131 78.044C70.7131 78.044 75.3291 77.5009 76.6934 78.8675Z" fill="#E4E4E4"/>
<path d="M70.9955 64.4252C70.987 63.9362 70.8346 63.4607 70.5573 63.0586C70.5281 63.0172 70.4986 62.9789 70.4692 62.9405C70.2335 62.6385 69.9315 62.3953 69.5867 62.2299C69.2419 62.0646 68.8636 61.9814 68.4815 61.9871L63.9096 62.0697L59.3405 62.1494C58.686 62.1626 58.0632 62.4355 57.6086 62.9085C57.154 63.3815 56.9046 64.016 56.9149 64.6731L58.0028 66.8722L58.629 68.1355L58.7319 68.0765C62.6864 65.845 64.3035 65.8154 69.5372 67.8905L69.643 67.9318L70.0576 66.8663L70.9984 64.4488L70.9955 64.4252Z" fill="#2F2E41"/>
<path d="M77.7224 80.1989C76.4179 81.8734 74.8172 83.2923 73.0005 84.3844L72.7153 79.2543L76.6934 78.8677C76.6934 78.8677 77.1697 78.8677 77.7224 80.1989Z" fill="#E4E4E4"/>
<path d="M64.2712 87.0913C60.0221 87.0961 55.9199 85.5303 52.7474 82.6926C52.5975 82.5603 52.4495 82.4209 52.3046 82.2784C50.5967 80.6591 49.238 78.7051 48.3125 76.5375C47.387 74.3699 46.9144 72.0346 46.924 69.6763C46.924 65.0575 48.7516 60.6279 52.0048 57.362C55.2581 54.096 59.6704 52.2612 64.2712 52.2612C68.8719 52.2612 73.2842 54.096 76.5375 57.362C79.7907 60.6279 81.6183 65.0575 81.6183 69.6763C81.6328 73.5569 80.3417 77.3288 77.9543 80.3808C76.3328 82.4712 74.2574 84.1624 71.8861 85.3253C69.5148 86.4883 66.9103 87.0923 64.2712 87.0913ZM64.2712 52.8516C59.8279 52.8566 55.5681 54.6308 52.4262 57.785C49.2844 60.9391 47.517 65.2156 47.512 69.6763C47.5029 71.9553 47.9598 74.2119 48.8544 76.3065C49.749 78.4011 51.0623 80.2891 52.713 81.8536C52.8535 81.9917 52.9937 82.1239 53.1369 82.2503C54.8513 83.7763 56.8588 84.9337 59.0358 85.6511C61.2128 86.3685 63.5131 86.6307 65.7949 86.4215C68.0767 86.2122 70.2916 85.5361 72.3031 84.4347C74.3147 83.3333 76.0802 81.8299 77.4909 80.0173C79.7972 77.0689 81.0444 73.4251 81.0303 69.6763C81.0253 65.2156 79.258 60.9391 76.1161 57.785C72.9742 54.6308 68.7144 52.8566 64.2712 52.8516Z" fill="#3F3D56"/>
<path d="M79.8657 111.235H49.3058C49.0011 111.235 48.6993 111.175 48.4178 111.058C48.1363 110.941 47.8805 110.769 47.665 110.553C47.4495 110.337 47.2786 110.08 47.162 109.797C47.0454 109.515 46.9854 109.212 46.9854 108.906C46.9854 108.6 47.0454 108.297 47.162 108.014C47.2786 107.732 47.4495 107.475 47.665 107.258C47.8805 107.042 48.1363 106.871 48.4178 106.753C48.6993 106.636 49.0011 106.576 49.3058 106.576H79.8657C80.1705 106.576 80.4722 106.636 80.7537 106.753C81.0353 106.871 81.2911 107.042 81.5065 107.258C81.722 107.475 81.8929 107.732 82.0096 108.014C82.1262 108.297 82.1862 108.6 82.1862 108.906C82.1862 109.212 82.1262 109.515 82.0096 109.797C81.8929 110.08 81.722 110.337 81.5065 110.553C81.2911 110.769 81.0353 110.941 80.7537 111.058C80.4722 111.175 80.1705 111.235 79.8657 111.235Z" fill="#2BC990"/>
<path d="M79.8657 118.615H49.3058C48.6904 118.615 48.1002 118.369 47.665 117.932C47.2298 117.495 46.9854 116.903 46.9854 116.285C46.9854 115.667 47.2298 115.075 47.665 114.638C48.1002 114.201 48.6904 113.956 49.3058 113.956H79.8657C80.4812 113.956 81.0714 114.201 81.5065 114.638C81.9417 115.075 82.1862 115.667 82.1862 116.285C82.1862 116.903 81.9417 117.495 81.5065 117.932C81.0714 118.369 80.4812 118.615 79.8657 118.615Z" fill="#2BC990"/>
<path d="M72.4264 103.766H56.7457C56.1303 103.766 55.5401 103.521 55.1049 103.084C54.6698 102.647 54.4253 102.055 54.4253 101.437C54.4253 100.819 54.6698 100.227 55.1049 99.7897C55.5401 99.3528 56.1303 99.1074 56.7457 99.1074H72.4264C73.0418 99.1074 73.632 99.3528 74.0672 99.7897C74.5024 100.227 74.7468 100.819 74.7468 101.437C74.7468 102.055 74.5024 102.647 74.0672 103.084C73.632 103.521 73.0418 103.766 72.4264 103.766Z" fill="#2BC990"/>
<path d="M176.706 158H0.29402C0.216041 158 0.14126 157.969 0.0861207 157.914C0.0309813 157.858 0 157.783 0 157.705C0 157.627 0.0309813 157.551 0.0861207 157.496C0.14126 157.441 0.216041 157.41 0.29402 157.41H176.706C176.784 157.41 176.859 157.441 176.914 157.496C176.969 157.551 177 157.627 177 157.705C177 157.783 176.969 157.858 176.914 157.914C176.859 157.969 176.784 158 176.706 158Z" fill="#CACACA"/>
</g>
<defs>
<clipPath id="clip0_44_228">
<rect width="177" height="158" fill="white"/>
</clipPath>
</defs>
</svg>
